<?xml version="1.0" encoding="UTF-8" standalone="no"?>
<svg
   version="1.1"
   width="16"
   height="16"
   viewBox="0 0 16 16"
   id="svg2"
   sodipodi:docname="Fuel-16_diesel.svg"
   inkscape:version="1.2.2 (b0a8486541, 2022-12-01)"
   xmlns:inkscape="http://www.inkscape.org/namespaces/inkscape"
   xmlns:sodipodi="http://sodipodi.sourceforge.net/DTD/sodipodi-0.dtd"
   xmlns="http://www.w3.org/2000/svg"
   xmlns:svg="http://www.w3.org/2000/svg"
   xmlns:rdf="http://www.w3.org/1999/02/22-rdf-syntax-ns#"
   xmlns:cc="http://creativecommons.org/ns#"
   xmlns:dc="http://purl.org/dc/elements/1.1/">
  <sodipodi:namedview
     id="namedview7"
     pagecolor="#ffffff"
     bordercolor="#000000"
     borderopacity="0.25"
     inkscape:showpageshadow="2"
     inkscape:pageopacity="0.0"
     inkscape:pagecheckerboard="0"
     inkscape:deskcolor="#d1d1d1"
     showgrid="false"
     inkscape:zoom="26.03125"
     inkscape:cx="1.6710684"
     inkscape:cy="8.6242497"
     inkscape:window-width="1920"
     inkscape:window-height="1014"
     inkscape:window-x="0"
     inkscape:window-y="0"
     inkscape:window-maximized="1"
     inkscape:current-layer="svg2" />
  <metadata
     id="metadata8">
    <rdf:RDF>
      <cc:Work
         rdf:about="">
        <dc:format>image/svg+xml</dc:format>
        <dc:type
           rdf:resource="http://purl.org/dc/dcmitype/StillImage" />
      </cc:Work>
    </rdf:RDF>
  </metadata>
  <defs
     id="defs6" />
  <rect
     width="16"
     height="16"
     x="0"
     y="0"
     id="canvas"
     style="visibility:hidden;fill:none;stroke:none" />
  <path
     d="M 12.32078,0.00120024 11.606602,0.8225056 12.96354,2.072318 c 0.04137,0.041378 0.09782,0.096777 0.142836,0.1428357 l -0.285671,0.3213804 c -0.457323,0.4573235 -0.129194,1.0491947 0.03571,1.2141034 l 0.857014,0.8570143 v 6.8204052 c 0,1.142686 -0.448088,1.142686 -0.571342,1.142686 -0.123256,0 -0.571344,0 -0.571344,-1.142686 V 6.8573141 c 0,-1.4636756 -1.142685,-2.2853712 -2.28537,-2.2853712 V 2.2865715 c 0,-0.6299666 -0.4853306,-1.1426856 -1.1426863,-1.1426856 h -6.856115 c -0.6847464,0 -1.1426857,0.4853291 -1.1426857,1.1426856 V 15.9988 h 9.141486 V 5.7146285 c 0,0 1.142685,0 1.142685,1.1426856 v 4.5707429 c 0,2.285371 1.416585,2.285371 1.714029,2.285371 0.314983,0 1.714028,0 1.714028,-2.285371 V 3.4292572 c 0,-1.1426857 -0.326827,-1.3817538 -0.714178,-1.7497374 z M 2.2865717,3.4292572 H 9.1426856 V 6.8573141 H 2.2865717 Z"
     id="fuel"
     style="vector-effect:non-scaling-stroke;fill:#000000;fill-opacity:1;stroke:#ffffff;stroke-width:1.14268;stroke-dasharray:none;stroke-opacity:1;-inkscape-stroke:hairline" />
</svg>
