<?xml version="1.0" encoding="UTF-8" standalone="no"?>
<svg
   version="1.1"
   width="16"
   height="16"
   viewBox="0 0 16 16"
   id="svg2"
   sodipodi:docname="Fuel-16_std.svg"
   inkscape:version="1.2.2 (b0a8486541, 2022-12-01)"
   xmlns:inkscape="http://www.inkscape.org/namespaces/inkscape"
   xmlns:sodipodi="http://sodipodi.sourceforge.net/DTD/sodipodi-0.dtd"
   xmlns="http://www.w3.org/2000/svg"
   xmlns:svg="http://www.w3.org/2000/svg"
   xmlns:rdf="http://www.w3.org/1999/02/22-rdf-syntax-ns#"
   xmlns:cc="http://creativecommons.org/ns#"
   xmlns:dc="http://purl.org/dc/elements/1.1/">
  <sodipodi:namedview
     id="namedview7"
     pagecolor="#ffffff"
     bordercolor="#000000"
     borderopacity="0.25"
     inkscape:showpageshadow="2"
     inkscape:pageopacity="0.0"
     inkscape:pagecheckerboard="0"
     inkscape:deskcolor="#d1d1d1"
     showgrid="false"
     inkscape:zoom="26.03125"
     inkscape:cx="-2.9003601"
     inkscape:cy="8.6626651"
     inkscape:window-width="1920"
     inkscape:window-height="1014"
     inkscape:window-x="0"
     inkscape:window-y="0"
     inkscape:window-maximized="1"
     inkscape:current-layer="svg2" />
  <metadata
     id="metadata8">
    <rdf:RDF>
      <cc:Work
         rdf:about="">
        <dc:format>image/svg+xml</dc:format>
        <dc:type
           rdf:resource="http://purl.org/dc/dcmitype/StillImage" />
      </cc:Work>
    </rdf:RDF>
  </metadata>
  <defs
     id="defs6" />
  <rect
     width="16"
     height="16"
     x="0"
     y="0"
     id="canvas"
     style="visibility:hidden;fill:none;stroke:none" />
  <path
     d="m 12.279277,0.07803143 -0.707318,0.81341643 1.343905,1.23780764 c 0.04098,0.040981 0.09687,0.095848 0.141464,0.1414638 L 12.7744,2.5890126 c -0.45293,0.4529308 -0.127952,1.039117 0.03536,1.2024417 l 0.848783,0.8487824 v 6.7548943 c 0,1.131709 -0.443785,1.131709 -0.565855,1.131709 -0.122071,0 -0.565855,0 -0.565855,-1.131709 V 6.8682905 c 0,-1.4496167 -1.13171,-2.2634198 -2.26342,-2.2634198 V 2.3414511 c 0,-0.6239157 -0.4806672,-1.1317098 -1.1317095,-1.1317098 H 2.3414506 c -0.6781692,0 -1.1317099,0.4806674 -1.1317099,1.1317098 V 15.921969 H 10.26342 V 5.7365806 c 0,0 1.131709,0 1.131709,1.1317099 v 4.5268405 c 0,2.263419 1.402978,2.263419 1.697565,2.263419 0.311958,0 1.697565,0 1.697565,-2.263419 v -7.92197 c 0,-1.1317099 -0.323688,-1.3684818 -0.707319,-1.7329308 z M 2.3414506,3.473161 h 6.790259 v 3.3951295 h -6.790259 z"
     id="fuel"
     style="vector-effect:non-scaling-stroke;fill:#a80000;fill-opacity:1;stroke:#ffffff;stroke-width:1.13171;stroke-dasharray:none;stroke-opacity:1;-inkscape-stroke:hairline" />
</svg>
