<?xml version="1.0" encoding="UTF-8" standalone="no"?>
<svg
   version="1.1"
   width="16"
   height="16"
   viewBox="0 0 16 16"
   id="svg2"
   sodipodi:docname="Fuel-16_lpg.svg"
   inkscape:version="1.2.2 (b0a8486541, 2022-12-01)"
   xmlns:inkscape="http://www.inkscape.org/namespaces/inkscape"
   xmlns:sodipodi="http://sodipodi.sourceforge.net/DTD/sodipodi-0.dtd"
   xmlns="http://www.w3.org/2000/svg"
   xmlns:svg="http://www.w3.org/2000/svg"
   xmlns:rdf="http://www.w3.org/1999/02/22-rdf-syntax-ns#"
   xmlns:cc="http://creativecommons.org/ns#"
   xmlns:dc="http://purl.org/dc/elements/1.1/">
  <sodipodi:namedview
     id="namedview7"
     pagecolor="#ffffff"
     bordercolor="#000000"
     borderopacity="0.25"
     inkscape:showpageshadow="2"
     inkscape:pageopacity="0.0"
     inkscape:pagecheckerboard="0"
     inkscape:deskcolor="#d1d1d1"
     showgrid="false"
     inkscape:zoom="26.03125"
     inkscape:cx="6.242497"
     inkscape:cy="8.5858343"
     inkscape:window-width="1920"
     inkscape:window-height="1014"
     inkscape:window-x="0"
     inkscape:window-y="0"
     inkscape:window-maximized="1"
     inkscape:current-layer="svg2" />
  <metadata
     id="metadata8">
    <rdf:RDF>
      <cc:Work
         rdf:about="">
        <dc:format>image/svg+xml</dc:format>
        <dc:type
           rdf:resource="http://purl.org/dc/dcmitype/StillImage" />
      </cc:Work>
    </rdf:RDF>
  </metadata>
  <defs
     id="defs6">
    <linearGradient
       id="linearGradient1663"
       inkscape:swatch="solid">
      <stop
         style="stop-color:#707000;stop-opacity:1;"
         offset="0"
         id="stop1661" />
    </linearGradient>
  </defs>
  <rect
     width="16"
     height="16"
     x="0"
     y="0"
     id="canvas"
     style="visibility:hidden;fill:none;stroke:none" />
  <path
     d="M 12.300029,0.03961592 11.58928,0.85697676 12.939703,2.1007868 c 0.04117,0.04118 0.09734,0.096313 0.142149,0.1421498 l -0.284299,0.3198368 c -0.455127,0.4551271 -0.128573,1.0441559 0.03553,1.2082726 l 0.852899,0.8528983 v 6.7876497 c 0,1.137197 -0.445937,1.137197 -0.568599,1.137197 -0.122663,0 -0.568599,0 -0.568599,-1.137197 V 6.8628024 c 0,-1.4566462 -1.137198,-2.2743955 -2.274396,-2.2743955 V 2.3140114 c 0,-0.6269412 -0.4829982,-1.1371977 -1.1371972,-1.1371977 H 2.3140116 c -0.6814578,0 -1.1371978,0.4829982 -1.1371978,1.1371977 V 15.960384 H 10.274396 V 5.7256046 c 0,0 1.137197,0 1.137197,1.1371978 v 4.5487916 c 0,2.274394 1.409782,2.274394 1.705797,2.274394 0.313471,0 1.705796,0 1.705796,-2.274394 V 3.4512092 c 0,-1.1371978 -0.325257,-1.3751179 -0.710748,-1.7413341 z M 2.3140116,3.4512092 H 9.137198 V 6.8628024 H 2.3140116 Z"
     id="fuel"
     style="vector-effect:non-scaling-stroke;fill:#ffcc00;fill-opacity:1;stroke:#ffffff;stroke-width:1.1372;stroke-dasharray:none;stroke-opacity:1;-inkscape-stroke:hairline" />
</svg>
